<svg xmlns="http://www.w3.org/2000/svg" xmlns:svg="http://www.w3.org/2000/svg" xmlns:xlink="http://www.w3.org/1999/xlink" version="1.0" height="1130.0000000000002pt" width="1420pt" viewBox="25 -52.99999999999994 1428 1136.0000000000002" ><defs><style type="text/css">
            @font-face {
                font-family: 'lt_regular';
                src: url('https://app.creately.com/diagram/assets/fonts/lato/lt-regular-webfont.woff2') format('woff2'),
                    url('https://app.creately.com/diagram/assets/fonts/lato/lt-regular-webfont.woff') format('woff');
                font-weight: normal;
                font-style: normal;
            }
            @font-face {
                font-family: 'noto_regular';
                src: url('https://app.creately.com/diagram/assets/fonts/noto/noto-regular.woff') format('woff'),
                     url('https://app.creately.com/diagram/assets/fonts/noto/noto-regular.woff2') format('woff2');
                font-weight: normal;
                font-style: normal;
            }
        p {
            margin: 0;
        }
        </style></defs><defs><style>
            span{ display: inline-block; }
        </style></defs><g id="55hXwKIrKYO"><g transform="translate(350.00000000000006 114.99999999999997)"><rect x="0" y="0" width="119.99999999999982" height="70.00000000000003" fill="rgb(142,179,155)" stroke="#8eb39b" stroke-width="2" stroke-linecap="round" stroke-linejoin="round"/></g><g transform="translate(377.69, 137.195) rotate(0, 32.31, 12.805)" width="64.62" height="25.61"><text text-decoration="none" x="0" fill="#4b4b4b" font-size="14pt" font-family="lt_regular"  y="20">Student</text><text text-decoration="none" x="67" fill="#4b4b4b" font-size="10pt" font-family="noto_regular"  y="20"></text></g></g><g id="Pr2ajoj8fbw"><g transform="translate(630 99.99999999999999)"><path d="M 150,50.000000000000014 L 75,100.00000000000003 L 0,50.000000000000014 L 75,0 L 150,50.000000000000014 L 150,50.000000000000014 Z" fill="rgb(142,179,155)" stroke="#8eb39b" stroke-width="2" stroke-linecap="round" stroke-linejoin="round"/></g><g transform="translate(642.215, 137.195) rotate(0, 62.785, 12.805)" width="125.57" height="25.61"><text text-decoration="none" x="42.785" fill="#4b4b4b" font-size="14pt" font-family="lt_regular"  y="20">Take&#160;</text><text text-decoration="none" x="20.784999999999997" fill="#4b4b4b" font-size="14pt" font-family="lt_regular"  y="46">admission</text><text text-decoration="none" x="104.785" fill="#4b4b4b" font-size="10pt" font-family="noto_regular"  y="46"></text></g></g><g id="ivmpJCXDjfx"><g transform="translate(940 115.00000000000003)"><rect x="0" y="0" width="120" height="69.99999999999996" fill="rgb(142,179,155)" stroke="#8eb39b" stroke-width="2" stroke-linecap="round" stroke-linejoin="round"/></g><g transform="translate(957.74, 137.195) rotate(0, 42.26, 12.805)" width="84.52" height="25.61"><text text-decoration="none" x="0" fill="#4b4b4b" font-size="14pt" font-family="lt_regular"  y="20">Admission</text><text text-decoration="none" x="88" fill="#4b4b4b" font-size="10pt" font-family="noto_regular"  y="20"></text></g></g><g id="HczD0lKPxAp"><g transform="translate(159.99999999999994 -49.99999999999994)"><ellipse cx="64.99999999999999" cy="29.999999999999993" rx="64.99999999999999" ry="29.999999999999993" fill="rgb(35,169,225)" stroke="#23a9e1" stroke-width="2" stroke-linecap="round" stroke-linejoin="round"/></g><g transform="translate(183.3599999999999, -32.80499999999995) rotate(0, 41.64, 12.805)" width="83.28" height="25.61"><text text-decoration="none" x="24.64" fill="#4b4b4b" font-size="14pt" font-family="lt_regular"  y="20">Last&#160;</text><text text-decoration="none" x="18.64" fill="#4b4b4b" font-size="14pt" font-family="lt_regular"  y="46">name</text><text text-decoration="none" x="64.64" fill="#4b4b4b" font-size="10pt" font-family="noto_regular"  y="46"></text></g></g><g id="dTeivYoX5Qr"><g transform="translate(69.99999999999994 40)"><ellipse cx="65" cy="30.000000000000004" rx="65" ry="30.000000000000004" fill="rgb(35,169,225)" stroke="#23a9e1" stroke-width="2" stroke-linecap="round" stroke-linejoin="round"/></g><g transform="translate(91.86999999999995, 57.195) rotate(0, 43.13, 12.805)" width="86.26" height="25.61"><text text-decoration="none" x="24.130000000000003" fill="#4b4b4b" font-size="14pt" font-family="lt_regular"  y="20">First&#160;</text><text text-decoration="none" x="20.130000000000003" fill="#4b4b4b" font-size="14pt" font-family="lt_regular"  y="46">name</text><text text-decoration="none" x="66.13" fill="#4b4b4b" font-size="10pt" font-family="noto_regular"  y="46"></text></g></g><g id="cR4svGSfTP7"><g transform="translate(30 129.99999999999994)"><ellipse cx="65" cy="29.99999999999997" rx="65" ry="29.99999999999997" fill="rgb(35,169,225)" stroke="#23a9e1" stroke-width="2" stroke-linecap="round" stroke-linejoin="round"/></g><g transform="translate(78.66, 147.1949999999999) rotate(0, 16.34, 12.805)" width="32.68" height="25.61"><text text-decoration="none" x="0" fill="#4b4b4b" font-size="14pt" font-family="lt_regular"  y="20">MIS</text><text text-decoration="none" x="33" fill="#4b4b4b" font-size="10pt" font-family="noto_regular"  y="20"></text></g></g><g id="i4roIDyBuxG"><g transform="translate(159.99999999999994 339.99999999999994)"><ellipse cx="65" cy="30.000000000000114" rx="65" ry="30.000000000000114" fill="rgb(35,169,225)" stroke="#23a9e1" stroke-width="2" stroke-linecap="round" stroke-linejoin="round"/></g><g transform="translate(198.43499999999995, 357.19500000000005) rotate(0, 26.565, 12.805)" width="53.13" height="25.61"><text text-decoration="none" x="20.565" fill="#4b4b4b" font-size="14pt" font-family="lt_regular"  y="20">B&#160;</text><text text-decoration="none" x="8.065000000000001" fill="#4b4b4b" font-size="14pt" font-family="lt_regular"  y="46">date</text><text text-decoration="none" x="45.065" fill="#4b4b4b" font-size="10pt" font-family="noto_regular"  y="46"></text></g></g><g id="it97NfsBIbu"><g transform="translate(69.99999999999994 239.99999999999994)"><ellipse cx="65" cy="30.000000000000004" rx="65" ry="30.000000000000004" fill="rgb(35,169,225)" stroke="#23a9e1" stroke-width="2" stroke-linecap="round" stroke-linejoin="round"/></g><g transform="translate(101.83999999999995, 257.19499999999994) rotate(0, 33.16, 12.805)" width="66.32" height="25.61"><text text-decoration="none" x="0" fill="#4b4b4b" font-size="14pt" font-family="lt_regular"  y="20">Address</text><text text-decoration="none" x="68" fill="#4b4b4b" font-size="10pt" font-family="noto_regular"  y="20"></text></g></g><g id="F8jtYbHnBiG"><g transform="translate(1199.9999999999998 -20)"><ellipse cx="65.99999999999999" cy="29.999999999999993" rx="65.99999999999999" ry="29.999999999999993" fill="rgb(35,169,225)" stroke="#23a9e1" stroke-width="2" stroke-linecap="round" stroke-linejoin="round"/></g><g transform="translate(1209.4149999999997, -2.805000000000007) rotate(0, 56.585, 12.805)" width="113.17" height="25.61"><text text-decoration="none" x="0" fill="#4b4b4b" font-size="14pt" font-family="lt_regular"  y="20">Student_Num</text><text text-decoration="none" x="118" fill="#4b4b4b" font-size="10pt" font-family="noto_regular"  y="20"></text></g></g><g id="rUOw5yvpFsu"><g transform="translate(1320 110)"><ellipse cx="64.99999999999997" cy="29.99999999999997" rx="64.99999999999997" ry="29.99999999999997" fill="rgb(35,169,225)" stroke="#23a9e1" stroke-width="2" stroke-linecap="round" stroke-linejoin="round"/></g><g transform="translate(1340.63, 114.39499999999997) rotate(0, 44.37, 25.605)" width="88.74" height="51.21"><text text-decoration="none" x="12.869999999999997" fill="#4b4b4b" font-size="14pt" font-family="lt_regular"  y="20">Date&#160;</text><text text-decoration="none" x="57.87" fill="#4b4b4b" font-size="14pt" font-family="lt_regular"  y="20">of&#160;</text><text text-decoration="none" x="0" fill="#4b4b4b" font-size="14pt" font-family="lt_regular"  y="46">enrollment</text><text text-decoration="none" x="91" fill="#4b4b4b" font-size="10pt" font-family="noto_regular"  y="46"></text></g></g><g id="DR9SducLN15"><g transform="translate(1190 240.00000000000006)"><ellipse cx="70.00000000000003" cy="29.999999999999925" rx="70.00000000000003" ry="29.999999999999925" fill="rgb(35,169,225)" stroke="#23a9e1" stroke-width="2" stroke-linecap="round" stroke-linejoin="round"/></g><g transform="translate(1206.085, 257.195) rotate(0, 53.915, 12.805)" width="107.83" height="25.61"><text text-decoration="none" x="23.915" fill="#4b4b4b" font-size="14pt" font-family="lt_regular"  y="20">Course&#160;</text><text text-decoration="none" x="30.915" fill="#4b4b4b" font-size="14pt" font-family="lt_regular"  y="46">name</text><text text-decoration="none" x="76.91499999999999" fill="#4b4b4b" font-size="10pt" font-family="noto_regular"  y="46"></text></g></g><g id="zgKw6ayrSdq"><g transform="translate(640 429.99999999999994)"><rect x="0" y="0" width="130.00000000000003" height="70" fill="rgb(142,179,155)" stroke="#8eb39b" stroke-width="2" stroke-linecap="round" stroke-linejoin="round"/></g><g transform="translate(661.92, 452.19499999999994) rotate(0, 43.08, 12.805)" width="86.16" height="25.61"><text text-decoration="none" x="22.08" fill="#4b4b4b" font-size="14pt" font-family="lt_regular"  y="20">Time&#160;</text><text text-decoration="none" x="22.58" fill="#4b4b4b" font-size="14pt" font-family="lt_regular"  y="46">table</text><text text-decoration="none" x="63.58" fill="#4b4b4b" font-size="10pt" font-family="noto_regular"  y="46"></text></g></g><g id="bSQYOKeuX6J"><g transform="translate(899.9999999999999 299.99999999999994)"><ellipse cx="50" cy="25" rx="50" ry="25" fill="rgb(35,169,225)" stroke="#23a9e1" stroke-width="2" stroke-linecap="round" stroke-linejoin="round"/></g><g transform="translate(929.6449999999999, 312.19499999999994) rotate(0, 20.355, 12.805)" width="40.71" height="25.61"><text text-decoration="none" x="0" fill="#4b4b4b" font-size="14pt" font-family="lt_regular"  y="20">Time</text><text text-decoration="none" x="42" fill="#4b4b4b" font-size="10pt" font-family="noto_regular"  y="20"></text></g></g><g id="BzBU2n24jia"><g transform="translate(900 439.99999999999994)"><ellipse cx="50" cy="25" rx="50" ry="25" fill="rgb(35,169,225)" stroke="#23a9e1" stroke-width="2" stroke-linecap="round" stroke-linejoin="round"/></g><g transform="translate(929.995, 452.19499999999994) rotate(0, 20.005, 12.805)" width="40.01" height="25.61"><text text-decoration="none" x="0.004999999999999005" fill="#4b4b4b" font-size="14pt" font-family="lt_regular"  y="20">Date</text><text text-decoration="none" x="40.004999999999995" fill="#4b4b4b" font-size="10pt" font-family="noto_regular"  y="20"></text></g></g><g id="aC2wgZP6BN5"><g transform="translate(900.0000000000001 560)"><ellipse cx="50" cy="25" rx="50" ry="25" fill="rgb(35,169,225)" stroke="#23a9e1" stroke-width="2" stroke-linecap="round" stroke-linejoin="round"/></g><g transform="translate(912.6650000000001, 572.195) rotate(0, 37.335, 12.805)" width="74.67" height="25.61"><text text-decoration="none" x="0" fill="#4b4b4b" font-size="14pt" font-family="lt_regular"  y="20">Attribute</text><text text-decoration="none" x="78" fill="#4b4b4b" font-size="10pt" font-family="noto_regular"  y="20"></text></g></g><g id="UnSTCZ6mP8h"><g transform="translate(490 560)"><ellipse cx="50" cy="25" rx="50" ry="25" fill="rgb(35,169,225)" stroke="#23a9e1" stroke-width="2" stroke-linecap="round" stroke-linejoin="round"/></g><g transform="translate(513.34, 575.8) rotate(0, 26.66, 9.2)" width="53.32" height="18.4"><text text-decoration="none" x="0.16000000000000014" fill="#4b4b4b" font-size="10pt" font-family="lt_regular"  y="17">Attribute</text><text text-decoration="none" x="53.16" fill="#4b4b4b" font-size="10pt" font-family="noto_regular"  y="17"></text></g></g><g id="OiGiqaWYjNt"><g transform="translate(630 750)"><path d="M 150.00000000000003,50.00000000000005 L 75.00000000000001,100.0000000000001 L 0,50.00000000000005 L 75.00000000000001,0 L 150.00000000000003,50.00000000000005 L 150.00000000000003,50.00000000000005 Z" fill="rgb(142,179,155)" stroke="#8eb39b" stroke-width="2" stroke-linecap="round" stroke-linejoin="round"/></g><g transform="translate(669.93, 787.195) rotate(0, 35.07, 12.805)" width="70.14" height="25.61"><text text-decoration="none" x="0" fill="#4b4b4b" font-size="14pt" font-family="lt_regular"  y="20">Lectures</text><text text-decoration="none" x="72" fill="#4b4b4b" font-size="10pt" font-family="noto_regular"  y="20"></text></g></g><g id="udWFAggAby3"><g transform="translate(940.0000000000001 765)"><rect x="0" y="0" width="119.9999999999998" height="69.99999999999991" fill="rgb(142,179,155)" stroke="#8eb39b" stroke-width="2" stroke-linecap="round" stroke-linejoin="round"/></g><g transform="translate(965.515, 787.195) rotate(0, 34.485, 12.805)" width="68.97" height="25.61"><text text-decoration="none" x="0" fill="#4b4b4b" font-size="14pt" font-family="lt_regular"  y="20">Subjetcs</text><text text-decoration="none" x="71" fill="#4b4b4b" font-size="10pt" font-family="noto_regular"  y="20"></text></g></g><g id="vCAVNc3Idhp"><g transform="translate(1140 660.0000000000003)"><ellipse cx="70.00000000000004" cy="34.99999999999984" rx="70.00000000000004" ry="34.99999999999984" fill="rgb(35,169,225)" stroke="#23a9e1" stroke-width="2" stroke-linecap="round" stroke-linejoin="round"/></g><g transform="translate(1172.665, 682.1950000000003) rotate(0, 37.335, 12.805)" width="74.67" height="25.61"><text text-decoration="none" x="0" fill="#4b4b4b" font-size="14pt" font-family="lt_regular"  y="20">Attribute</text><text text-decoration="none" x="78" fill="#4b4b4b" font-size="10pt" font-family="noto_regular"  y="20"></text></g></g><g id="Y5pAXbUDJbf"><g transform="translate(1140 880)"><ellipse cx="75.00000000000001" cy="34.99999999999998" rx="75.00000000000001" ry="34.99999999999998" fill="rgb(35,169,225)" stroke="#23a9e1" stroke-width="2" stroke-linecap="round" stroke-linejoin="round"/></g><g transform="translate(1167.195, 902.195) rotate(0, 47.805, 12.805)" width="95.61" height="25.61"><text text-decoration="none" x="17.305" fill="#4b4b4b" font-size="14pt" font-family="lt_regular"  y="20">subject&#160;</text><text text-decoration="none" x="30.805" fill="#4b4b4b" font-size="14pt" font-family="lt_regular"  y="46">unit</text><text text-decoration="none" x="64.805" fill="#4b4b4b" font-size="10pt" font-family="noto_regular"  y="46"></text></g></g><g id="oRoaoolbdAq"><g transform="translate(350 765)"><rect x="0" y="0" width="110.00000000000017" height="69.9999999999999" fill="rgb(142,179,155)" stroke="#8eb39b" stroke-width="2" stroke-linecap="round" stroke-linejoin="round"/></g><g transform="translate(370.5650000000001, 787.195) rotate(0, 34.435, 12.805)" width="68.87" height="25.61"><text text-decoration="none" x="0" fill="#4b4b4b" font-size="14pt" font-family="lt_regular"  y="20">Lecturer</text><text text-decoration="none" x="71" fill="#4b4b4b" font-size="10pt" font-family="noto_regular"  y="20"></text></g></g><g id="tmI8ELnppyB"><g transform="translate(200 610)"><ellipse cx="70.00000000000051" cy="30.000000000001187" rx="70.00000000000051" ry="30.000000000001187" fill="rgb(35,169,225)" stroke="#23a9e1" stroke-width="2" stroke-linecap="round" stroke-linejoin="round"/></g><g transform="translate(228.36000000000053, 627.1950000000012) rotate(0, 41.64, 12.805)" width="83.28" height="25.61"><text text-decoration="none" x="24.64" fill="#4b4b4b" font-size="14pt" font-family="lt_regular"  y="20">Last&#160;</text><text text-decoration="none" x="18.64" fill="#4b4b4b" font-size="14pt" font-family="lt_regular"  y="46">name</text><text text-decoration="none" x="64.64" fill="#4b4b4b" font-size="10pt" font-family="noto_regular"  y="46"></text></g></g><g id="JmfAHSqVs5J"><g transform="translate(69.99999999999989 730)"><ellipse cx="75.00000000000001" cy="30.000000000000128" rx="75.00000000000001" ry="30.000000000000128" fill="rgb(35,169,225)" stroke="#23a9e1" stroke-width="2" stroke-linecap="round" stroke-linejoin="round"/></g><g transform="translate(101.86999999999989, 747.1950000000002) rotate(0, 43.13, 12.805)" width="86.26" height="25.61"><text text-decoration="none" x="24.130000000000003" fill="#4b4b4b" font-size="14pt" font-family="lt_regular"  y="20">First&#160;</text><text text-decoration="none" x="20.130000000000003" fill="#4b4b4b" font-size="14pt" font-family="lt_regular"  y="46">name</text><text text-decoration="none" x="66.13" fill="#4b4b4b" font-size="10pt" font-family="noto_regular"  y="46"></text></g></g><g id="NgXz0mchUEk"><g transform="translate(80.00000000000023 899.9999999999999)"><ellipse cx="74.99999999999987" cy="30.00000000000005" rx="74.99999999999987" ry="30.00000000000005" fill="rgb(35,169,225)" stroke="#23a9e1" stroke-width="2" stroke-linecap="round" stroke-linejoin="round"/></g><g transform="translate(117.6650000000001, 917.195) rotate(0, 37.335, 12.805)" width="74.67" height="25.61"><text text-decoration="none" x="0" fill="#4b4b4b" font-size="14pt" font-family="lt_regular"  y="20">Attribute</text><text text-decoration="none" x="78" fill="#4b4b4b" font-size="10pt" font-family="noto_regular"  y="20"></text></g></g><g id="XK2kDfIw6SB"><g transform="translate(200 1010.0000000000003)"><ellipse cx="70.00000000000007" cy="34.99999999999999" rx="70.00000000000007" ry="34.99999999999999" fill="rgb(35,169,225)" stroke="#23a9e1" stroke-width="2" stroke-linecap="round" stroke-linejoin="round"/></g><g transform="translate(236.84000000000006, 1032.1950000000002) rotate(0, 33.16, 12.805)" width="66.32" height="25.61"><text text-decoration="none" x="0" fill="#4b4b4b" font-size="14pt" font-family="lt_regular"  y="20">Address</text><text text-decoration="none" x="68" fill="#4b4b4b" font-size="10pt" font-family="noto_regular"  y="20"></text></g></g><g id="SgJQTtDxmbD"><g><path d="M 705,200 L 705,430" fill="none" stroke="#A8A8A8" stroke-width="2" stroke-linecap="round" stroke-linejoin="round"/><path d="M 710.75,430 L 705,420 L 699.25,430 M 710.75,420 L 699.25,420 Z" fill="none" stroke="#A8A8A8" stroke-width="2" stroke-linecap="round" stroke-linejoin="round"/></g></g><g id="Pry0n2dHHKs"><g transform="translate(180 250.00000000000006) rotate(-30.151671175849152)"><path d="M 0,5 L 190.91883092036767,5" fill="rgb(75,75,75)" stroke="#4b4b4b" stroke-width="2" stroke-linecap="round" stroke-linejoin="round"/><rect x="0" y="0" width="190.91883092036767" height="10" fill="rgba(255,255,255,0.01)" stroke="rgba(255,255,255,0.01)" stroke-width="2" stroke-linecap="round" stroke-linejoin="round"/></g><g transform="translate(270.0780023894561, 215.02210004123862) rotate(-30.15, 0, 0)" width="0" height="36"><text text-decoration="none" x="0" fill="#4b4b4b" font-size="10pt" font-family="noto_regular"  y="14"></text><text text-decoration="none" x="0" fill="#4b4b4b" font-size="10pt" font-family="noto_regular"  y="36"></text></g></g><g id="0bpTVdEIQqH"><g transform="translate(160.0000000000001 149.99999999999994)"><path d="M 0,5 L 195.04310985675764,5" fill="rgb(75,75,75)" stroke="#4b4b4b" stroke-width="2" stroke-linecap="round" stroke-linejoin="round"/><rect x="0" y="0" width="195.04310985675764" height="10" fill="rgba(255,255,255,0.01)" stroke="rgba(255,255,255,0.01)" stroke-width="2" stroke-linecap="round" stroke-linejoin="round"/></g><g transform="translate(257.5215549283789, 164.99999999999994) rotate(0, 0, 0)" width="0" height="36"><text text-decoration="none" x="0" fill="#4b4b4b" font-size="10pt" font-family="noto_regular"  y="14"></text><text text-decoration="none" x="0" fill="#4b4b4b" font-size="10pt" font-family="noto_regular"  y="36"></text></g></g><g id="ufMzZvxjNeH"><g transform="translate(199.99999999999994 70) rotate(27.25018106672378)"><path d="M 0,5 L 169.1416976358698,5" fill="rgb(75,75,75)" stroke="#4b4b4b" stroke-width="2" stroke-linecap="round" stroke-linejoin="round"/><rect x="0" y="0" width="169.1416976358698" height="10" fill="rgba(255,255,255,0.01)" stroke="rgba(255,255,255,0.01)" stroke-width="2" stroke-linecap="round" stroke-linejoin="round"/></g><g transform="translate(268.3166610276741, 122.05825867060733) rotate(27.25, 0, 0)" width="0" height="36"><text text-decoration="none" x="0" fill="#4b4b4b" font-size="10pt" font-family="noto_regular"  y="14"></text><text text-decoration="none" x="0" fill="#4b4b4b" font-size="10pt" font-family="noto_regular"  y="36"></text></g></g><g id="QcLPOSUDhFG"><g transform="translate(250 0) rotate(33.10451382411278)"><path d="M 0,5 L 199.5682653277267,5" fill="rgb(75,75,75)" stroke="#4b4b4b" stroke-width="2" stroke-linecap="round" stroke-linejoin="round"/><rect x="0" y="0" width="199.5682653277267" height="10" fill="rgba(255,255,255,0.01)" stroke="rgba(255,255,255,0.01)" stroke-width="2" stroke-linecap="round" stroke-linejoin="round"/></g><g transform="translate(325.39422299536227, 67.06403112254038) rotate(33.1, 0, 0)" width="0" height="36"><text text-decoration="none" x="0" fill="#4b4b4b" font-size="10pt" font-family="noto_regular"  y="14"></text><text text-decoration="none" x="0" fill="#4b4b4b" font-size="10pt" font-family="noto_regular"  y="36"></text></g></g><g id="afUPyfyzSdG"><g transform="translate(224.17215014530854 332.12088272776725) rotate(-36.48876674475071)"><path d="M 0,5 L 242.8199666628334,5" fill="rgb(75,75,75)" stroke="#4b4b4b" stroke-width="2" stroke-linecap="round" stroke-linejoin="round"/><rect x="0" y="0" width="242.8199666628334" height="10" fill="rgba(255,255,255,0.01)" stroke="rgba(255,255,255,0.01)" stroke-width="2" stroke-linecap="round" stroke-linejoin="round"/></g><g transform="translate(330.7025326702662, 271.9821959145263) rotate(-36.49, 0, 0)" width="0" height="36"><text text-decoration="none" x="0" fill="#4b4b4b" font-size="10pt" font-family="noto_regular"  y="14"></text><text text-decoration="none" x="0" fill="#4b4b4b" font-size="10pt" font-family="noto_regular"  y="36"></text></g></g><g id="WiDwRWR39St"><g><path d="M 470,150 L 630,150" fill="none" stroke="#A8A8A8" stroke-width="2" stroke-linecap="round" stroke-linejoin="round"/><path d="M 470,155.75 L 480,150 L 470,144.25 M 480,155.75 L 480,144.25 Z" fill="none" stroke="#A8A8A8" stroke-width="2" stroke-linecap="round" stroke-linejoin="round"/></g></g><g id="8vqkiSgheqF"><g><path d="M 780,150 L 940,150" fill="none" stroke="#A8A8A8" stroke-width="2" stroke-linecap="round" stroke-linejoin="round"/><path d="M 935,144.25 L 935,155.75 Z" fill="none" stroke="#A8A8A8" stroke-width="2" stroke-linecap="round" stroke-linejoin="round"/></g></g><g id="OAVI1YuyHO9"><g transform="translate(1050 140) rotate(-37.27399650683259)"><path d="M 0,5 L 190.9188309203679,5" fill="rgb(75,75,75)" stroke="#4b4b4b" stroke-width="2" stroke-linecap="round" stroke-linejoin="round"/><rect x="0" y="0" width="190.9188309203679" height="10" fill="rgba(255,255,255,0.01)" stroke="rgba(255,255,255,0.01)" stroke-width="2" stroke-linecap="round" stroke-linejoin="round"/></g><g transform="translate(1135.0460891976031, 94.12339689783745) rotate(-37.27, 0, 0)" width="0" height="36"><text text-decoration="none" x="0" fill="#4b4b4b" font-size="10pt" font-family="noto_regular"  y="14"></text><text text-decoration="none" x="0" fill="#4b4b4b" font-size="10pt" font-family="noto_regular"  y="36"></text></g></g><g id="4q7JLvDsSSz"><g transform="translate(1196.3714410176517 264.6549272499264) rotate(-142.06325417776037)"><path d="M 0,5 L 179.85194706286947,5" fill="rgb(75,75,75)" stroke="#4b4b4b" stroke-width="2" stroke-linecap="round" stroke-linejoin="round"/><rect x="0" y="0" width="179.85194706286947" height="10" fill="rgba(255,255,255,0.01)" stroke="rgba(255,255,255,0.01)" stroke-width="2" stroke-linecap="round" stroke-linejoin="round"/></g><g transform="translate(1134.6695957055067, 197.53888594345148) rotate(-142.06, 0, 0)" width="0" height="36"><text text-decoration="none" x="0" fill="#4b4b4b" font-size="10pt" font-family="noto_regular"  y="14"></text><text text-decoration="none" x="0" fill="#4b4b4b" font-size="10pt" font-family="noto_regular"  y="36"></text></g></g><g id="iHUNTty37Gc"><g transform="translate(1060 140)"><path d="M 0,5 L 260,5" fill="rgb(75,75,75)" stroke="#4b4b4b" stroke-width="2" stroke-linecap="round" stroke-linejoin="round"/><rect x="0" y="0" width="260" height="10" fill="rgba(255,255,255,0.01)" stroke="rgba(255,255,255,0.01)" stroke-width="2" stroke-linecap="round" stroke-linejoin="round"/></g><g transform="translate(1190, 155) rotate(0, 0, 0)" width="0" height="36"><text text-decoration="none" x="0" fill="#4b4b4b" font-size="10pt" font-family="noto_regular"  y="14"></text><text text-decoration="none" x="0" fill="#4b4b4b" font-size="10pt" font-family="noto_regular"  y="36"></text></g></g><g id="NJbcbv1MUvN"><g transform="translate(770 460)"><path d="M 0,5 L 130.00000000000006,5" fill="rgb(75,75,75)" stroke="#4b4b4b" stroke-width="2" stroke-linecap="round" stroke-linejoin="round"/><rect x="0" y="0" width="130.00000000000006" height="10" fill="rgba(255,255,255,0.01)" stroke="rgba(255,255,255,0.01)" stroke-width="2" stroke-linecap="round" stroke-linejoin="round"/></g><g transform="translate(835, 475) rotate(0, 0, 0)" width="0" height="36"><text text-decoration="none" x="0" fill="#4b4b4b" font-size="10pt" font-family="noto_regular"  y="14"></text><text text-decoration="none" x="0" fill="#4b4b4b" font-size="10pt" font-family="noto_regular"  y="36"></text></g></g><g id="JjMhdbB2Z7i"><g transform="translate(770 460) rotate(-44.99999999999999)"><path d="M 0,5 L 187.86796564403593,5" fill="rgb(75,75,75)" stroke="#4b4b4b" stroke-width="2" stroke-linecap="round" stroke-linejoin="round"/><rect x="0" y="0" width="187.86796564403593" height="10" fill="rgba(255,255,255,0.01)" stroke="rgba(255,255,255,0.01)" stroke-width="2" stroke-linecap="round" stroke-linejoin="round"/></g><g transform="translate(847.0279579551078, 404.1852454804887) rotate(-45, 0, 0)" width="0" height="36"><text text-decoration="none" x="0" fill="#4b4b4b" font-size="10pt" font-family="noto_regular"  y="14"></text><text text-decoration="none" x="0" fill="#4b4b4b" font-size="10pt" font-family="noto_regular"  y="36"></text></g></g><g id="FwLw2kbPz8u"><g transform="translate(774.2406034187354 463.75347565134956) rotate(34.17156597467839)"><path d="M 0,5 L 180.2711979635445,5" fill="rgb(75,75,75)" stroke="#4b4b4b" stroke-width="2" stroke-linecap="round" stroke-linejoin="round"/><rect x="0" y="0" width="180.2711979635445" height="10" fill="rgba(255,255,255,0.01)" stroke="rgba(255,255,255,0.01)" stroke-width="2" stroke-linecap="round" stroke-linejoin="round"/></g><g transform="translate(840.3900471242862, 526.7905861597558) rotate(34.17, 0, 0)" width="0" height="36"><text text-decoration="none" x="0" fill="#4b4b4b" font-size="10pt" font-family="noto_regular"  y="14"></text><text text-decoration="none" x="0" fill="#4b4b4b" font-size="10pt" font-family="noto_regular"  y="36"></text></g></g><g id="NK85G35beCr"><mask id="9471b" x="691" y="486" width="28" height="278" maskUnits="userSpaceOnUse"><rect x="691" y="486" width="28" height="278" fill="white" />undefined</mask><g mask="url(#9471b)"><path d="M 705,500 L 705,750" fill="none" stroke="#A8A8A8" stroke-width="2" stroke-linecap="round" stroke-linejoin="round"/><path d="M 699.25,500 L 705,510 L 710.75,500 M 699.25,510 L 710.75,510 Z" fill="none" stroke="#A8A8A8" stroke-width="2" stroke-linecap="round" stroke-linejoin="round"/></g>undefined</g><g id="vN4U2zgPODz"><g transform="translate(1060 800) rotate(-44.99999999999998)"><path d="M 0,5 L 120.20815280171303,5" fill="rgb(75,75,75)" stroke="#4b4b4b" stroke-width="2" stroke-linecap="round" stroke-linejoin="round"/><rect x="0" y="0" width="120.20815280171303" height="10" fill="rgba(255,255,255,0.01)" stroke="rgba(255,255,255,0.01)" stroke-width="2" stroke-linecap="round" stroke-linejoin="round"/></g><g transform="translate(1113.1066017177982, 768.1066017177983) rotate(-45, 0, 0)" width="0" height="36"><text text-decoration="none" x="0" fill="#4b4b4b" font-size="10pt" font-family="noto_regular"  y="14"></text><text text-decoration="none" x="0" fill="#4b4b4b" font-size="10pt" font-family="noto_regular"  y="36"></text></g></g><g id="sMTqtVvaz3C"><g transform="translate(1059.9999999999998 800) rotate(35.10379517339269)"><path d="M 0,5 L 136.88658534139898,5" fill="rgb(75,75,75)" stroke="#4b4b4b" stroke-width="2" stroke-linecap="round" stroke-linejoin="round"/><rect x="0" y="0" width="136.88658534139898" height="10" fill="rgba(255,255,255,0.01)" stroke="rgba(255,255,255,0.01)" stroke-width="2" stroke-linecap="round" stroke-linejoin="round"/></g><g transform="translate(1107.3683619573444, 851.6306362258399) rotate(35.1, 0, 0)" width="0" height="36"><text text-decoration="none" x="0" fill="#4b4b4b" font-size="10pt" font-family="noto_regular"  y="14"></text><text text-decoration="none" x="0" fill="#4b4b4b" font-size="10pt" font-family="noto_regular"  y="36"></text></g></g><g id="SwMcobeAmWH"><g><path d="M 590,585 L 711,590" fill="none" stroke="#7E7E7E" stroke-width="2" stroke-linecap="round" stroke-linejoin="round"/></g></g><g id="Y7x7Xr9bd0L"><g transform="translate(200.00000000000006 740) rotate(19.931990954707917)"><path d="M 0,5 L 161.4689598363364,5" fill="rgb(75,75,75)" stroke="#4b4b4b" stroke-width="2" stroke-linecap="round" stroke-linejoin="round"/><rect x="0" y="0" width="161.4689598363364" height="10" fill="rgba(255,255,255,0.01)" stroke="rgba(255,255,255,0.01)" stroke-width="2" stroke-linecap="round" stroke-linejoin="round"/></g><g transform="translate(270.78474991205, 781.6242168400278) rotate(19.93, 0, 0)" width="0" height="36"><text text-decoration="none" x="0" fill="#4b4b4b" font-size="10pt" font-family="noto_regular"  y="14"></text><text text-decoration="none" x="0" fill="#4b4b4b" font-size="10pt" font-family="noto_regular"  y="36"></text></g></g><g id="TFa5vRRaQK0"><g transform="translate(220.0000000000001 910) rotate(-39.05112075362323)"><path d="M 0,5 L 163.9572933364276,5" fill="rgb(75,75,75)" stroke="#4b4b4b" stroke-width="2" stroke-linecap="round" stroke-linejoin="round"/><rect x="0" y="0" width="163.9572933364276" height="10" fill="rgba(255,255,255,0.01)" stroke="rgba(255,255,255,0.01)" stroke-width="2" stroke-linecap="round" stroke-linejoin="round"/></g><g transform="translate(293.11352112393223, 870.0011057851323) rotate(-39.05, 0, 0)" width="0" height="36"><text text-decoration="none" x="0" fill="#4b4b4b" font-size="10pt" font-family="noto_regular"  y="14"></text><text text-decoration="none" x="0" fill="#4b4b4b" font-size="10pt" font-family="noto_regular"  y="36"></text></g></g><g id="x8RYLQuX6eW"><g transform="translate(260.00000000000006 670) rotate(30.233491227522986)"><path d="M 0,5 L 193.62465595680501,5" fill="rgb(75,75,75)" stroke="#4b4b4b" stroke-width="2" stroke-linecap="round" stroke-linejoin="round"/><rect x="0" y="0" width="193.62465595680501" height="10" fill="rgba(255,255,255,0.01)" stroke="rgba(255,255,255,0.01)" stroke-width="2" stroke-linecap="round" stroke-linejoin="round"/></g><g transform="translate(336.09109958104574, 731.7071423187393) rotate(30.23, 0, 0)" width="0" height="36"><text text-decoration="none" x="0" fill="#4b4b4b" font-size="10pt" font-family="noto_regular"  y="14"></text><text text-decoration="none" x="0" fill="#4b4b4b" font-size="10pt" font-family="noto_regular"  y="36"></text></g></g><g id="eHrVw3mbaJj"><g transform="translate(255.00000000000023 1005.0000000000003) rotate(-44.99999999999998)"><path d="M 0,5 L 237.36544032709372,5" fill="rgb(75,75,75)" stroke="#4b4b4b" stroke-width="2" stroke-linecap="round" stroke-linejoin="round"/><rect x="0" y="0" width="237.36544032709372" height="10" fill="rgba(255,255,255,0.01)" stroke="rgba(255,255,255,0.01)" stroke-width="2" stroke-linecap="round" stroke-linejoin="round"/></g><g transform="translate(349.5279579551078, 931.6852454804892) rotate(-45, 0, 0)" width="0" height="36"><text text-decoration="none" x="0" fill="#4b4b4b" font-size="10pt" font-family="noto_regular"  y="14"></text><text text-decoration="none" x="0" fill="#4b4b4b" font-size="10pt" font-family="noto_regular"  y="36"></text></g></g><g id="cvLb23k3RTV"><g><path d="M 544,801 L 544,801" fill="none" stroke="#7E7E7E" stroke-width="2" stroke-linecap="round" stroke-linejoin="round"/></g></g><g id="J4OdLNpqaFD"><g transform="translate(700 220)"><ellipse cx="5.000000000000066" cy="5.000000000000066" rx="5.000000000000066" ry="5.000000000000066" fill="white" stroke="#7e7e7e" stroke-width="2" stroke-linecap="round" stroke-linejoin="round"/></g></g><g id="I856ijs90Sa"><g transform="translate(700 210)"><path d="M 0,5 L 9.999999999999908,5" fill="rgb(75,75,75)" stroke="#4b4b4b" stroke-width="2" stroke-linecap="round" stroke-linejoin="round"/><rect x="0" y="0" width="9.999999999999908" height="10" fill="rgba(255,255,255,0.01)" stroke="rgba(255,255,255,0.01)" stroke-width="2" stroke-linecap="round" stroke-linejoin="round"/></g><g transform="translate(705, 225) rotate(0, 0, 0)" width="0" height="36"><text text-decoration="none" x="0" fill="#4b4b4b" font-size="10pt" font-family="noto_regular"  y="14"></text><text text-decoration="none" x="0" fill="#4b4b4b" font-size="10pt" font-family="noto_regular"  y="36"></text></g></g><g id="gCRsfuyd3sh"><g><path d="M 460,800 L 630,800" fill="none" stroke="#A8A8A8" stroke-width="2" stroke-linecap="round" stroke-linejoin="round"/><path d="M 465,805.75 L 465,794.25 Z" fill="none" stroke="#A8A8A8" stroke-width="2" stroke-linecap="round" stroke-linejoin="round"/></g></g><g id="AlPMuVvaLwS"><g><path d="M 780,800 L 940,800" fill="none" stroke="#A8A8A8" stroke-width="2" stroke-linecap="round" stroke-linejoin="round"/><path d="M 940,794.25 L 930,800 L 940,805.75 M 930,794.25 L 930,805.75 Z" fill="none" stroke="#A8A8A8" stroke-width="2" stroke-linecap="round" stroke-linejoin="round"/></g></g><g id="BIbsqHoT5YI"><g transform="translate(699.9999999999999 720) rotate(-7.016709298534876e-15)"><ellipse cx="5.586840055775366" cy="5.586840055775366" rx="5.586840055775366" ry="5.586840055775366" fill="white" stroke="#7e7e7e" stroke-width="2" stroke-linecap="round" stroke-linejoin="round"/></g></g><g id="NJebhZ65eKw"><g transform="translate(700 730)"><path d="M 0,5 L 9.999999999999902,5" fill="rgb(75,75,75)" stroke="#4b4b4b" stroke-width="2" stroke-linecap="round" stroke-linejoin="round"/><rect x="0" y="0" width="9.999999999999902" height="10" fill="rgba(255,255,255,0.01)" stroke="rgba(255,255,255,0.01)" stroke-width="2" stroke-linecap="round" stroke-linejoin="round"/></g><g transform="translate(705, 745) rotate(0, 0, 0)" width="0" height="36"><text text-decoration="none" x="0" fill="#4b4b4b" font-size="10pt" font-family="noto_regular"  y="14"></text><text text-decoration="none" x="0" fill="#4b4b4b" font-size="10pt" font-family="noto_regular"  y="36"></text></g></g><g id="zQr5Ri4TB67"><g transform="translate(600 790)"><ellipse cx="10.000000000000034" cy="10.000000000000034" rx="10.000000000000034" ry="10.000000000000034" fill="white" stroke="#7e7e7e" stroke-width="2" stroke-linecap="round" stroke-linejoin="round"/></g></g><g id="U9bNiwUHCaq"><g transform="translate(620 810) rotate(-90)"><path d="M 0,5 L 20.000000000000078,5" fill="rgb(75,75,75)" stroke="#4b4b4b" stroke-width="2" stroke-linecap="round" stroke-linejoin="round"/><rect x="0" y="0" width="20.000000000000078" height="10" fill="rgba(255,255,255,0.01)" stroke="rgba(255,255,255,0.01)" stroke-width="2" stroke-linecap="round" stroke-linejoin="round"/></g><g transform="translate(635, 800) rotate(-90, 0, 0)" width="0" height="36"><text text-decoration="none" x="0" fill="#4b4b4b" font-size="10pt" font-family="noto_regular"  y="14"></text><text text-decoration="none" x="0" fill="#4b4b4b" font-size="10pt" font-family="noto_regular"  y="36"></text></g></g><g id="ciKTKq2arwi"><g transform="translate(790 790)"><ellipse cx="9.999999999999973" cy="9.999999999999973" rx="9.999999999999973" ry="9.999999999999973" fill="white" stroke="#7e7e7e" stroke-width="2" stroke-linecap="round" stroke-linejoin="round"/></g></g><g id="uJkB4PWNiQo"><g transform="translate(780 810) rotate(-90)"><path d="M 0,5 L 20.000000000000078,5" fill="rgb(75,75,75)" stroke="#4b4b4b" stroke-width="2" stroke-linecap="round" stroke-linejoin="round"/><rect x="0" y="0" width="20.000000000000078" height="10" fill="rgba(255,255,255,0.01)" stroke="rgba(255,255,255,0.01)" stroke-width="2" stroke-linecap="round" stroke-linejoin="round"/></g><g transform="translate(795, 800) rotate(-90, 0, 0)" width="0" height="36"><text text-decoration="none" x="0" fill="#4b4b4b" font-size="10pt" font-family="noto_regular"  y="14"></text><text text-decoration="none" x="0" fill="#4b4b4b" font-size="10pt" font-family="noto_regular"  y="36"></text></g></g><g id="80qAxutGn36"><g transform="translate(600 140.00000000000003)"><ellipse cx="9.999999999999995" cy="9.999999999999995" rx="9.999999999999995" ry="9.999999999999995" fill="white" stroke="#7e7e7e" stroke-width="2" stroke-linecap="round" stroke-linejoin="round"/></g></g><g id="n3zOYimalzX"><g transform="translate(810 140.00000000000003)"><ellipse cx="9.999999999999996" cy="9.999999999999996" rx="9.999999999999996" ry="9.999999999999996" fill="white" stroke="#7e7e7e" stroke-width="2" stroke-linecap="round" stroke-linejoin="round"/></g></g><g id="LPLIZdWzQgx"><g transform="translate(620 159.99999999999997) rotate(-90)"><path d="M 0,5 L 20,5" fill="rgb(75,75,75)" stroke="#4b4b4b" stroke-width="2" stroke-linecap="round" stroke-linejoin="round"/><rect x="0" y="0" width="20" height="10" fill="rgba(255,255,255,0.01)" stroke="rgba(255,255,255,0.01)" stroke-width="2" stroke-linecap="round" stroke-linejoin="round"/></g><g transform="translate(635, 149.99999999999997) rotate(-90, 0, 0)" width="0" height="36"><text text-decoration="none" x="0" fill="#4b4b4b" font-size="10pt" font-family="noto_regular"  y="14"></text><text text-decoration="none" x="0" fill="#4b4b4b" font-size="10pt" font-family="noto_regular"  y="36"></text></g></g><g id="X5r0GwG3LT6"><g transform="translate(800 159.99999999999997) rotate(-90)"><path d="M 0,5 L 19.999999999999805,5" fill="rgb(75,75,75)" stroke="#4b4b4b" stroke-width="2" stroke-linecap="round" stroke-linejoin="round"/><rect x="0" y="0" width="19.999999999999805" height="10" fill="rgba(255,255,255,0.01)" stroke="rgba(255,255,255,0.01)" stroke-width="2" stroke-linecap="round" stroke-linejoin="round"/></g><g transform="translate(815, 150.00000000000006) rotate(-90, 0, 0)" width="0" height="36"><text text-decoration="none" x="0" fill="#4b4b4b" font-size="10pt" font-family="noto_regular"  y="14"></text><text text-decoration="none" x="0" fill="#4b4b4b" font-size="10pt" font-family="noto_regular"  y="36"></text></g></g></svg>